# xmcd CD database file
#
# Track frame offsets:
#	150
#	17404
#	31809
#	43964
#	68044
#	72324
#	84104
#	101509
#	124089
#	151319
#	165724
#	189129
#	217408
#	234437
#	238641
#	254995
#	269549
#	286279
#	307358
#
# Disc length: 4167 seconds
#
# Revision: 0
# Processed by: cddbd v1.5.2PL0 Copyright (c) Steve Scherf et al.
# Submitted via: CDex 1.51
#
DISCID=13104513
DTITLE=RIPOFF RASKOLNIKOV  - MÁTYÁS PRIBOJSZKI - Room For Two
DYEAR=2009
DGENRE=Blues
TTITLE0=Antidote
TTITLE1=Autumn Light
TTITLE2=Get Away From That Woman
TTITLE3=Far Side Of Town
TTITLE4=Running Home To My Baby
TTITLE5=Good Boy At Heart
TTITLE6=Hard Working Man
TTITLE7=My Lucky Day
TTITLE8=Leaving On The Morrow
TTITLE9=Budapest Boogie
TTITLE10=No Easy Rider
TTITLE11=Land Of The Righteous
TTITLE12=Sweet Little Rider
TTITLE13=Sleepwalk
TTITLE14=Love Is Fake
TTITLE15=Poor Lonesome Pilgrim
TTITLE16=Mr. Landlord
TTITLE17=Customer Blues
TTITLE18=Last Call
EXTD=YEAR: 2009
EXTT0=
EXTT1=
EXTT2=
EXTT3=
EXTT4=
EXTT5=
EXTT6=
EXTT7=
EXTT8=
EXTT9=
EXTT10=
EXTT11=
EXTT12=
EXTT13=
EXTT14=
EXTT15=
EXTT16=
EXTT17=
EXTT18=
PLAYORDER=
